<svg xmlns="http://www.w3.org/2000/svg" xmlns:xlink="http://www.w3.org/1999/xlink" version="1.1" x="0px" y="0px" viewBox="0 0 100 125" style="enable-background:new 0 0 100 100;" xml:space="preserve"><path d="M82.1,31v-4.5c0-4.3-3.4-7.7-7.8-7.7H23.9c-2.1,0-3.8-1.7-3.8-3.8s1.7-3.8,3.8-3.8h58.3v-4H23.9c-4.3,0-7.8,3.5-7.8,7.8  s3.5,7.8,7.8,7.8h50.3c2.1,0,3.8,1.6,3.8,3.7V31H-0.2v58h100.3V31H82.1z M96.2,85H3.8V35h74.2h4h14.1V85z"/><path d="M7.2,82h85.7V38H7.2V82z M11.2,71.8h6.9V78h-6.9V71.8z M28.1,71.8V78h-6v-6.2H28.1z M28.1,51.8v6h-6v-6H28.1z M38.1,51.8v6  h-6v-6H38.1z M48.1,51.8v6h-6v-6H48.1z M58.1,51.8v6h-6v-6H58.1z M68.1,51.8v6h-6v-6H68.1z M78.1,51.8v6h-6v-6H78.1z M67.1,67.8v-6  h6v6H67.1z M43.1,61.8v6h-6v-6H43.1z M47.1,61.8h6v6h-6V61.8z M57.1,61.8h6v6h-6V61.8z M33.1,61.8v6h-6v-6H33.1z M32.1,71.8h36V78  h-36V71.8z M72.1,71.8h6V78h-6V71.8z M77.1,67.8v-6h5v-2h0v-8h6.8v16H77.1z M77.1,47.8V42h6v5.8H77.1z M73.1,47.8h-6V42h6V47.8z   M63.1,47.8h-6V42h6V47.8z M53.1,47.8h-6V42h6V47.8z M43.1,47.8h-6V42h6V47.8z M33.1,47.8h-6V42h6V47.8z M23.1,47.8h-6V42h6V47.8z   M18.1,51.8v6h-6.9v-6H18.1z M23.1,61.8v6H11.2v-6H23.1z M82.1,78v-6.2h6.8V78H82.1z M88.8,47.8h-1.8V42h1.8V47.8z M13.1,42v5.8  h-1.9V42H13.1z"/></svg>