<svg xmlns="http://www.w3.org/2000/svg" version="1.1" viewBox="-5.0 -10.0 110.0 135.0">
 <path d="m70.773 48.375-10.391-0.046875h-0.050781l-0.050781-0.007813c-0.71484-0.066406-1.543-0.14453-2.3125-0.49609-0.78906-0.36328-1.5117-1.0039-1.9062-1.75-0.39844-0.75391-0.42969-1.5664-0.46094-2.2227l-0.003906-0.03125 0.042969-35.156c0-0.18359 0.082031-0.35937 0.22656-0.47266 0.14453-0.11328 0.33203-0.15234 0.51172-0.10938l0.0625 0.015625c1.2773 0.30859 2.582 0.62891 4.332 1.2773 1.7695 0.65625 4 1.6523 5.7422 2.6992 1.7539 1.0508 2.9961 2.1406 4.2031 3.1992 0.10547 0.09375 0.17188 0.21875 0.19531 0.35547 0.77344 4.7148 1.5508 9.4688 1.6641 15.867 0.11719 6.3945-0.42969 14.434-1.8203 22.043-0.76562 4.1914-1.7852 8.2539-2.7148 11.953-0.76172 3.0273-1.4609 5.8008-1.918 8.2383-1.0156 5.4023-0.85547 9.1484-0.69141 12.941 0.011718 0.32812-0.24219 0.60938-0.57422 0.62109-0.32812 0.015625-0.60938-0.24219-0.625-0.57031-0.16016-3.8125-0.32812-7.668 0.71484-13.211 0.46484-2.4805 1.1719-5.2969 1.9336-8.3125 0.92969-3.7031 1.9414-7.7266 2.6992-11.875 1.375-7.5273 1.9141-15.488 1.8008-21.805-0.11328-6.3086-0.87891-10.988-1.6484-15.699l0.19531 0.35547c-1.207-1.0586-2.3789-2.0859-4.0312-3.0742-1.6602-0.99609-3.8203-1.9648-5.5391-2.6016-1.6797-0.625-2.9336-0.93359-4.1992-1.2383l-0.0625-0.015625 0.73828-0.58203-0.039063 35.156v-0.03125c0.035156 0.70313 0.070313 1.2461 0.32422 1.7266 0.25781 0.48438 0.76953 0.95312 1.3438 1.2188 0.55859 0.25781 1.1875 0.32422 1.9297 0.39453h-0.003906l0.050781 0.003906h-0.050781l10.391 0.046876c0.32812 0 0.59375 0.26953 0.59375 0.60156 0 0.32812-0.26953 0.59766-0.60156 0.59375z"/>
 <path d="m30.484 47.188 10.18-0.0625-0.046874 0.003906c0.75-0.0625 1.3789-0.125 1.9492-0.38672l-0.082031 0.046874 0.082031-0.046874c0.57812-0.26563 1.1016-0.74219 1.3594-1.2305l-0.007812 0.007812 0.007812-0.011719c0.25391-0.48047 0.28125-1.0234 0.30469-1.7305v0.023437l-0.046875-35.133 0.73828 0.58203-0.09375 0.023438c-1.2422 0.29687-2.4688 0.59375-4.1367 1.2109-1.7188 0.63281-3.8906 1.6016-5.5586 2.6016-1.6562 0.99609-2.832 2.0352-4.043 3.1094l0.19531-0.35547c-0.76172 4.7617-1.5156 9.4883-1.6289 15.773-0.11328 6.2969 0.42188 14.156 1.7891 21.656 0.75 4.1055 1.7539 8.1055 2.6758 11.801 0.76562 3.0508 1.4805 5.8984 1.9492 8.4102 1.0391 5.5664 0.87109 9.4414 0.70703 13.27v-0.027344 0.003906c0 0.32813-0.26953 0.59766-0.59766 0.59766-0.33203 0-0.59766-0.26953-0.59766-0.59766v-0.027343c0.16406-3.8086 0.32422-7.5742-0.6875-13-0.46094-2.4648-1.168-5.2812-1.9336-8.3398-0.92188-3.6914-1.9336-7.7266-2.6914-11.875-1.3867-7.582-1.9219-15.52-1.8086-21.891 0.11328-6.3789 0.88281-11.18 1.6445-15.941 0.019531-0.13672 0.089843-0.26172 0.19141-0.35547 1.2109-1.0703 2.457-2.1758 4.2188-3.2344 1.7539-1.0547 3.9961-2.0508 5.7617-2.7031 1.7344-0.64062 3.0234-0.95312 4.2734-1.2539l0.09375-0.019531c0.17578-0.042969 0.36719 0 0.50781 0.11328 0.14453 0.11328 0.23047 0.28516 0.23047 0.46875l0.046876 35.129v0.023437c-0.023438 0.66016-0.042969 1.4805-0.44531 2.2461l0.007813-0.011718h-0.003907l-0.003906 0.011718c-0.39453 0.75391-1.1328 1.4023-1.918 1.7656l0.082032-0.046875-0.082032 0.046875c-0.79297 0.36328-1.6328 0.42969-2.3477 0.48828l-0.050781 0.003907-10.176 0.0625c-0.32813 0-0.59766-0.26562-0.60156-0.59375 0-0.33203 0.26562-0.60156 0.59375-0.60547z"/>
 <path d="m55.91 12.16c-1.707-0.64062-3.5312-0.97266-5.3555-0.97266-0.12109 0-0.23438 0-0.35547 0.003906-1.6797 0.039063-3.3555 0.35938-4.9336 0.94531-0.30859 0.11328-0.65234-0.042969-0.76953-0.35156-0.11328-0.3125 0.042968-0.65625 0.35547-0.76953 1.6992-0.63281 3.5078-0.97656 5.3203-1.0195 0.13281-0.003906 0.24609-0.007813 0.38281-0.007813 1.9688 0 3.9375 0.35938 5.7773 1.0508 0.30859 0.11719 0.46484 0.46094 0.35156 0.76953-0.11719 0.30859-0.46484 0.46484-0.77344 0.35156z"/>
 <path d="m52.402 18.137-3.8516-0.007813h0.007813c-0.26953 0.003906-0.54297 0.12109-0.72656 0.31641-0.18359 0.19531-0.28516 0.47656-0.26953 0.74219l0.003906 0.035156-0.007812 12.824v0.007813c-0.003906 0.29297 0.11719 0.59375 0.32812 0.80078 0.20312 0.19922 0.49219 0.31641 0.77344 0.31641h0.035156 0.019532l3.6094 0.015625h-0.023438c0.30078-0.011719 0.59766-0.14453 0.80469-0.35938 0.21094-0.22266 0.33594-0.53516 0.32812-0.84375v-0.011719l0.03125-12.578 0.003906-0.023437c0.011719-0.35156-0.14062-0.71484-0.40625-0.94531-0.19141-0.16797-0.44531-0.27344-0.69922-0.29297l0.039063 0.003907m0.003906-1.1992 0.039062 0.003906c0.51563 0.035156 1.0156 0.24219 1.4062 0.58203 0.53516 0.47266 0.84375 1.1836 0.8125 1.8984v-0.023437l-0.035156 12.574v-0.015625c0.015625 0.62891-0.22656 1.25-0.66016 1.6992-0.42578 0.44141-1.0156 0.70312-1.625 0.72656h-0.023438l-3.6094-0.015624h0.019531c-0.023438 0.003906-0.046875 0.003906-0.070313 0.003906-0.59375 0-1.1836-0.24219-1.6133-0.66016-0.44141-0.4375-0.69531-1.0547-0.68359-1.6758v0.007813l0.003907-12.82v0.03125c-0.03125-0.59375 0.18359-1.1914 0.58984-1.625 0.41016-0.4375 0.99609-0.69141 1.5938-0.69531h0.003907z"/>
 <path d="m52.258 42.18c-0.007812-0.43359-0.1875-0.87109-0.49219-1.1836-0.30469-0.30859-0.73438-0.50391-1.168-0.52344-0.023437 0-0.054687-0.003906-0.078125-0.003906-0.4375 0-0.87891 0.17578-1.1992 0.47656-0.33594 0.31641-0.54297 0.77734-0.55078 1.2422v-0.007812l-0.019531 5.8594v-0.019531c0.011719 0.45312 0.21094 0.90234 0.53516 1.2188 0.32031 0.3125 0.77344 0.49219 1.2227 0.49219h0.011719-0.003906c0.44922 0 0.90234-0.1875 1.2227-0.50391 0.32031-0.3125 0.51172-0.76172 0.52344-1.2109v0.015625l-0.003907-5.8633v0.011719m1.1992-0.023438v0.011719l0.003907 5.8633-0.003907 0.011719c-0.015625 0.76172-0.33984 1.5078-0.88281 2.0391-0.53906 0.53125-1.2891 0.84375-2.0508 0.84766h-0.015626c-0.76172 0-1.5117-0.30469-2.0547-0.83203-0.55078-0.53516-0.87891-1.2812-0.89844-2.0469v-0.015625l0.019531-5.8594v-0.007812c0.011719-0.78516 0.35156-1.5586 0.92578-2.0977 0.54297-0.50781 1.2773-0.79687 2.0195-0.79687 0.050781 0 0.082031 0 0.13281 0.003906 0.73828 0.035156 1.4531 0.35547 1.9688 0.88672h0.003906c0.51172 0.52734 0.81641 1.2539 0.83203 1.9922z"/>
 <path d="m51.109 50.57-0.003906 40.469c0 0.32813-0.26953 0.59766-0.60156 0.59766-0.32812 0-0.59766-0.26953-0.59766-0.59766l0.003906-40.469c0-0.33203 0.26953-0.59766 0.59766-0.59766 0.33203 0 0.60156 0.26562 0.60156 0.59766z"/>
 <path d="m70.93 16.191v0.003906l0.015624 0.011719-0.003906-0.003906c1.125 1.0195 2.2734 2.0859 3.2383 5.3008 0.94531 3.1641 1.7305 8.4531 1.4414 14.035-0.10938 2.1719-0.38672 4.3945-0.67188 6.6836-0.3125 2.5234-0.63672 5.1445-0.78516 7.957-0.058593 1.2031-0.089843 2.4336-0.070312 3.707 0.035156 2.4023 0.23828 4.9609 0.44531 7.5391 0.20703 2.5625 0.41406 5.1445 0.44922 7.582 0.03125 2.2227-0.078125 4.3477-0.47266 6.2422-1.2695 6.0898-5.4219 9.6133-8.8125 11.895l-0.003906 0.003907h0.003906c-3.4023 2.2891-6.168 3.4258-8.6094 4.0703l0.011719-0.003906h-0.003907l-0.011718 0.003906c-2.2539 0.59766-4.2188 0.77344-6.1289 0.77344-0.17578 0-0.30469 0-0.47656-0.003907-2.0586-0.03125-4.0938-0.24609-6.5195-0.76953-2.4453-0.52344-5.3242-1.375-8.668-4.0898-3.3008-2.6836-7.0898-7.2148-8.7266-11.77-1.6484-4.5742-1.1016-9.1094-0.58203-13.484 0.039063-0.32812 0.33594-0.5625 0.66406-0.52344 0.32812 0.039063 0.5625 0.33594 0.52344 0.66406-0.52344 4.418-1.0156 8.6719 0.51953 12.941 1.5469 4.2891 5.1719 8.6562 8.3555 11.242 3.1484 2.5586 5.8281 3.3477 8.1641 3.8516 2.3516 0.50781 4.3086 0.71094 6.2891 0.74219 0.14844 0 0.30469 0.003906 0.45703 0.003906 1.8281 0 3.6875-0.17188 5.8242-0.73438l-0.011718 0.003906v-0.003906h0.011718c2.3086-0.61328 4.9531-1.6875 8.2461-3.9062l0.003906-0.003906c3.3047-2.2266 7.1367-5.5195 8.3086-11.148 0.37109-1.7734 0.48047-3.7969 0.44922-5.9766-0.035157-2.3906-0.23828-4.9336-0.44531-7.5078-0.20703-2.5664-0.41406-5.168-0.44922-7.6172-0.019532-1.3008 0.007812-2.5625 0.070312-3.7812 0.14844-2.8633 0.48047-5.5312 0.79297-8.043 0.28516-2.3047 0.55469-4.4766 0.66406-6.6016 0.28516-5.4531-0.48828-10.602-1.3945-13.629-0.88281-2.9492-1.875-3.8359-2.8906-4.7539l-0.003906-0.003906-0.015625-0.011719c-0.24219-0.21875-0.25781-0.59766-0.039063-0.84375 0.22266-0.24609 0.60156-0.26562 0.84766-0.042969z"/>
 <path d="m26.559 50.523 0.046875-0.011719h-0.003907l-0.042968 0.011719c-0.66406 0.13281-1.1562 0.24219-1.4609 0.4375-0.17188 0.11328-0.36719 0.27734-0.38281 1.2422-0.015625 0.98828 0.16016 2.6094 0.35156 3.8359 0.1875 1.207 0.38672 2.0039 0.61328 2.832 0.23828 0.86328 0.48047 1.6328 0.86328 2.1562 0.36328 0.50391 0.89453 0.81641 1.3398 0.96484 0.28516 0.09375 0.53125 0.11719 0.78516 0.11719 0.12109 0 0.25781-0.003906 0.39453-0.011719h0.027344l-0.58203 0.73438-0.035156-0.16016c-0.52344-2.2266-1.043-4.457-1.418-6.293-0.38672-1.8867-0.61719-3.3633-0.83203-5.5625-0.16016-1.6445-0.3125-3.7031-0.46094-5.7266-0.042969-0.60156-0.10156-1.418-0.14453-1.9961l-0.03125-0.41016-0.03125-0.40625c-0.17578-2.3281-0.32813-4.5977-0.23047-8.1328 0.10938-3.918 0.53516-9.4453 1.3594-12.73 0.85156-3.3867 2.1523-4.4531 3.4102-5.4648 0.25781-0.20703 0.63672-0.16797 0.84375 0.089843 0.20703 0.25781 0.16406 0.63672-0.09375 0.84375-1.1328 0.91016-2.2305 1.7734-3 4.8242-0.79297 3.1484-1.2109 8.5664-1.3242 12.473-0.097656 3.4727 0.054688 5.6992 0.22656 8.0078l0.03125 0.40625 0.03125 0.41016c0.046875 0.60156 0.10156 1.3789 0.14844 2 0.14844 2.0273 0.30078 4.0703 0.45703 5.6953 0.21094 2.1602 0.4375 3.5938 0.8125 5.4414 0.37109 1.8203 0.88672 4.0234 1.4102 6.2578l0.039062 0.16016c0.039063 0.17578 0 0.36328-0.11328 0.50781-0.11719 0.14453-0.28906 0.22656-0.47266 0.22656h0.03125c-0.13672 0.007812-0.29297 0.015625-0.45312 0.015625-0.34375 0-0.72266-0.035156-1.1602-0.17969-0.62891-0.21094-1.3906-0.64844-1.9336-1.3984-0.53125-0.72656-0.81641-1.7109-1.0469-2.543-0.23828-0.85938-0.44531-1.6992-0.64453-2.9648-0.19141-1.2461-0.38281-2.9453-0.36328-4.0391 0.019531-1.1172 0.25781-1.793 0.92578-2.2266 0.53906-0.34766 1.2891-0.48828 1.875-0.60938l-0.046874 0.011719h0.003906c0.36719-0.078125 0.68359 0.13281 0.75 0.45703 0.066406 0.32422-0.14453 0.64062-0.46875 0.70703z"/>
 <path d="m26.238 48.762c-0.57422-0.046875-1.3359-0.097657-1.9727-0.48047-0.67188-0.40625-1.1211-1.1133-1.3828-2.0703-0.25781-0.94141-0.35547-2.1914-0.42969-3.4141-0.070313-1.2383-0.12109-2.5234-0.11328-3.5547 0.003906-1 0.054687-1.8945 0.4375-2.6328l0.53125-0.32422-0.53125 0.32422c0.38281-0.73828 1.0586-1.25 1.6055-1.4922l-0.027343 0.011718 0.027343-0.011718c0.35938-0.15625 0.67188-0.20313 0.96094-0.20313 0.17578 0 0.33984 0.015626 0.46875 0.03125 0.32812 0.035157 0.56641 0.32813 0.53125 0.66016-0.035156 0.32812-0.32812 0.56641-0.65625 0.53125-0.13672-0.015625-0.24219-0.027344-0.34375-0.027344-0.14453 0-0.29297 0.019531-0.48047 0.10156l0.027344-0.011719-0.027344 0.011719c-0.34766 0.15625-0.78906 0.5-1.0234 0.94922l-0.53125 0.32422 0.53125-0.32422c-0.23438 0.44922-0.29688 1.0664-0.30469 2.0898-0.003906 0.99609 0.042969 2.25 0.11328 3.4766 0.074218 1.2383 0.16797 2.3672 0.38672 3.1641 0.21484 0.78125 0.52734 1.1719 0.84766 1.3633 0.35156 0.21484 0.80859 0.26172 1.4492 0.3125 0.33203 0.027344 0.57422 0.31641 0.55078 0.64453-0.027343 0.32812-0.31641 0.57422-0.64453 0.55078z"/>
</svg>