<svg xmlns="http://www.w3.org/2000/svg" version="1.1" viewBox="-5.0 -10.0 110.0 135.0">
 <path d="m94.648 43.766-3.6602-7.7734c-2.7656-5.875-10.254-9.8086-18.668-9.8086h-44.641c-8.4141 0-15.902 3.9375-18.668 9.8086l-3.6602 7.7734c-0.26562 0.57031-0.375 1.1406-0.34766 1.6992 0.054688 1.0977 0.66406 2.1289 1.1367 3.0938 0.86719 1.7812 2.4688 4.1094 5.1758 4.1094h1.1055v18.996c0 1.1875 0.96484 2.1523 2.1523 2.1523s2.1523-0.96484 2.1523-2.1523v-18.996h9.1992v8.4219c0 1.1875 0.96484 2.1523 2.1523 2.1523s2.1523-0.96484 2.1523-2.1523v-8.4219h39.539v8.4219c0 1.1875 0.96484 2.1523 2.1523 2.1523s2.1523-0.96484 2.1523-2.1523v-8.4219h9.1992v18.996c0 1.1875 0.96484 2.1523 2.1523 2.1523s2.1523-0.96484 2.1523-2.1523v-18.996h1.1055c2.707 0 4.3047-2.3242 5.1758-4.1094 0.46875-0.96484 1.082-1.9961 1.1367-3.0938 0.027344-0.55859-0.082032-1.1289-0.34766-1.6992zm-79.324 27.898c0 0.41406-0.33984 0.75391-0.75391 0.75391-0.41406 0-0.75391-0.33984-0.75391-0.75391l0.003906-18.996h1.5078zm13.508-10.574c0 0.41406-0.33984 0.75391-0.75391 0.75391s-0.75391-0.33594-0.75391-0.75391v-8.4219h1.5078zm43.844 0c0 0.41406-0.33984 0.75391-0.75391 0.75391s-0.75391-0.33594-0.75391-0.75391v-8.4219h1.5078zm13.504 10.574c0 0.41406-0.33984 0.75391-0.75391 0.75391-0.41406 0-0.75391-0.33984-0.75391-0.75391l0.003906-18.996h1.5078zm2.5039-20.395h-77.367c-1.3242 0-2.3086-0.82031-3.0703-1.8906 0.89844 0.37109 1.9375 0.58984 3.0703 0.58984h77.371c1.1328 0 2.1719-0.21875 3.0703-0.58984-0.76172 1.0664-1.75 1.8906-3.0742 1.8906zm4.6055-4.8555c-0.074218 0.125-0.15625 0.24609-0.24609 0.35938-0.85938 1.0977-2.5234 1.793-4.3555 1.793h-77.371c-1.832 0-3.5-0.69531-4.3555-1.793-0.089844-0.11328-0.17578-0.23438-0.24609-0.35938-0.38672-0.67187-0.41797-1.3594-0.09375-2.0508l3.6602-7.7734c2.5352-5.3867 9.5273-9.0078 17.402-9.0078h44.645c7.875 0 14.867 3.6211 17.402 9.0078l3.6602 7.7734c0.31641 0.69141 0.28125 1.3789-0.10156 2.0508z"/></svg>