<svg xmlns="http://www.w3.org/2000/svg" xmlns:xlink="http://www.w3.org/1999/xlink" version="1.1" x="0px" y="0px" viewBox="0 0 100 125" style="enable-background:new 0 0 100 100;" xml:space="preserve"><path d="M50,21.5c-17.9,0-34.8-0.9-47.7-2.6l-0.7-0.1v62.5l0.7-0.1c10.9-1.8,26.1-2.6,47.7-2.6c21.6,0,36.7,0.8,47.7,2.6l0.7,0.1  V71.1V18.8v0l-0.7,0.1C84.8,20.6,67.9,21.5,50,21.5z M5.6,70.6c12.4-1.4,28-2.2,44.4-2.2c16.4,0,32,0.8,44.4,2.2v4.7  c-13.2-1.8-29.8-2.1-44.4-2.1s-31.2,0.2-44.4,2.1V70.6z M50,67.1c-17.6,0-34.3,0.9-47.1,2.6V20.2c12.8,1.7,29.5,2.6,47.1,2.6  s34.3-0.9,47.1-2.6v0v49.4C84.3,68,67.6,67.1,50,67.1z M50,77.3c-21.2,0-36.2,0.8-47.1,2.5v-8.9c0.5-0.1,1-0.1,1.5-0.2v6l0.7-0.1  c13.2-1.9,30.1-2.2,44.9-2.2c14.8,0,31.7,0.3,44.9,2.2l0.7,0.1v-6c0.5,0.1,1,0.1,1.5,0.2v8.9C86.2,78.1,71.2,77.3,50,77.3z"/></svg>